<svg width="765" height="808" viewBox="0 0 765 808" fill="none" xmlns="http://www.w3.org/2000/svg">
<path d="M0 388.25C458.5 388.25 379 0.25 766 0.25" stroke="white" stroke-width="0.5"/>
<path d="M0 389.25C458.5 389.25 379 25.25 766 25.25" stroke="white" stroke-width="0.5"/>
<path d="M0 390.25C458.5 390.25 379 50.25 766 50.25" stroke="white" stroke-width="0.5"/>
<path d="M0 391.25C458.5 391.25 379 75.25 766 75.25" stroke="white" stroke-width="0.5"/>
<path d="M0 392.25C458.5 392.25 379 100.25 766 100.25" stroke="white" stroke-width="0.5"/>
<path d="M0 393.25C458.5 393.25 379 125.25 766 125.25" stroke="white" stroke-width="0.5"/>
<path d="M0 394.25C458.5 394.25 379 150.25 766 150.25" stroke="white" stroke-width="0.5"/>
<path d="M0 395.25C458.5 395.25 379 175.25 766 175.25" stroke="white" stroke-width="0.5"/>
<path d="M0 396.25C458.5 396.25 379 200.25 766 200.25" stroke="white" stroke-width="0.5"/>
<path d="M0 397.25C458.5 397.25 379 225.25 766 225.25" stroke="white" stroke-width="0.5"/>
<path d="M0 398.25C458.5 398.25 379 250.25 766 250.25" stroke="white" stroke-width="0.5"/>
<path d="M0 399.25C458.5 399.25 379 275.25 766 275.25" stroke="white" stroke-width="0.5"/>
<path d="M0 400.25C458.5 400.25 379 300.25 766 300.25" stroke="white" stroke-width="0.5"/>
<path d="M0 401.25C458.5 401.25 379 325.25 766 325.25" stroke="white" stroke-width="0.5"/>
<path d="M0 402.25C458.5 402.25 379 350.25 766 350.25" stroke="white" stroke-width="0.5"/>
<path d="M0 403.25C458.5 403.25 379 375.25 766 375.25" stroke="white" stroke-width="0.5"/>
<path d="M0 418.25C458.5 418.25 379 782.25 766 782.25" stroke="white" stroke-width="0.5"/>
<path d="M0 417.25C458.5 417.25 379 757.25 766 757.25" stroke="white" stroke-width="0.5"/>
<path d="M0 416.25C458.5 416.25 379 732.25 766 732.25" stroke="white" stroke-width="0.5"/>
<path d="M0 415.25C458.5 415.25 379 707.25 766 707.25" stroke="white" stroke-width="0.5"/>
<path d="M0 414.25C458.5 414.25 379 682.25 766 682.25" stroke="white" stroke-width="0.5"/>
<path d="M0 413.25C458.5 413.25 379 657.25 766 657.25" stroke="white" stroke-width="0.5"/>
<path d="M0 412.25C458.5 412.25 379 632.25 766 632.25" stroke="white" stroke-width="0.5"/>
<path d="M0 411.25C458.5 411.25 379 607.25 766 607.25" stroke="white" stroke-width="0.5"/>
<path d="M0 410.25C458.5 410.25 379 582.25 766 582.25" stroke="white" stroke-width="0.5"/>
<path d="M0 409.25C458.5 409.25 379 557.25 766 557.25" stroke="white" stroke-width="0.5"/>
<path d="M0 408.25C458.5 408.25 379 532.25 766 532.25" stroke="white" stroke-width="0.5"/>
<path d="M0 407.25C458.5 407.25 379 507.25 766 507.25" stroke="white" stroke-width="0.5"/>
<path d="M0 406.25C458.5 406.25 379 482.25 766 482.25" stroke="white" stroke-width="0.5"/>
<path d="M0 405.25C458.5 405.25 379 457.25 766 457.25" stroke="white" stroke-width="0.5"/>
<path d="M0 404.25C458.5 404.25 379 432.25 766 432.25" stroke="white" stroke-width="0.5"/>
<path d="M0 419.25C458.5 419.25 379 807.25 766 807.25" stroke="white" stroke-width="0.5"/>
<path d="M0 403.25C462.495 403.25 374.628 403.25 765 403.25" stroke="white" stroke-width="0.5"/>
</svg>
