<svg width="320" height="320" viewBox="0 0 320 320" fill="none" xmlns="http://www.w3.org/2000/svg">
<rect width="320" height="320" fill="#171715"/>
<rect x="66" y="98" width="132" height="94" rx="2" stroke="#D9D7D2" stroke-width="2.5" stroke-linecap="round"/>
<mask id="mask0_2203_168" style="mask-type:alpha" maskUnits="userSpaceOnUse" x="66" y="98" width="132" height="94">
<rect x="66" y="98" width="132" height="94" rx="2" fill="white"/>
</mask>
<g mask="url(#mask0_2203_168)">
<line x1="31.1161" y1="174.001" x2="164.286" y2="40.8318" stroke="#D9D7D2" stroke-width="2.5"/>
<line x1="23.1161" y1="166.001" x2="156.286" y2="32.8318" stroke="#D9D7D2" stroke-width="2.5"/>
<line x1="15.1161" y1="158.001" x2="148.286" y2="24.8318" stroke="#D9D7D2" stroke-width="2.5"/>
<line x1="39.1161" y1="182.001" x2="172.286" y2="48.8318" stroke="#D9D7D2" stroke-width="2.5"/>
<line x1="47.1161" y1="190.001" x2="180.286" y2="56.8318" stroke="#D9D7D2" stroke-width="2.5"/>
<line x1="71.1161" y1="215.001" x2="204.286" y2="81.8318" stroke="#D9D7D2" stroke-width="2.5"/>
<line x1="63.1161" y1="207.001" x2="196.286" y2="73.8318" stroke="#D9D7D2" stroke-width="2.5"/>
<line x1="55.1161" y1="199.001" x2="188.286" y2="65.8318" stroke="#D9D7D2" stroke-width="2.5"/>
<line x1="79.1161" y1="223.001" x2="212.286" y2="89.8318" stroke="#D9D7D2" stroke-width="2.5"/>
<line x1="87.1161" y1="231.001" x2="220.286" y2="97.8318" stroke="#D9D7D2" stroke-width="2.5"/>
<line x1="111.116" y1="255.001" x2="244.286" y2="121.832" stroke="#D9D7D2" stroke-width="2.5"/>
<line x1="103.116" y1="247.001" x2="236.286" y2="113.832" stroke="#D9D7D2" stroke-width="2.5"/>
<line x1="95.1161" y1="239.001" x2="228.286" y2="105.832" stroke="#D9D7D2" stroke-width="2.5"/>
<line x1="119.116" y1="263.001" x2="252.286" y2="129.832" stroke="#D9D7D2" stroke-width="2.5"/>
<line x1="127.116" y1="271.001" x2="260.286" y2="137.832" stroke="#D9D7D2" stroke-width="2.5"/>
</g>
<path d="M238 109C238 110.105 237.105 111 236 111C234.895 111 234 110.105 234 109C234 107.895 234.895 107 236 107C237.105 107 238 107.895 238 109Z" fill="#D9D7D2"/>
<path d="M248 109C248 110.105 247.105 111 246 111C244.895 111 244 110.105 244 109C244 107.895 244.895 107 246 107C247.105 107 248 107.895 248 109Z" fill="#D9D7D2"/>
<path d="M238 119C238 120.105 237.105 121 236 121C234.895 121 234 120.105 234 119C234 117.895 234.895 117 236 117C237.105 117 238 117.895 238 119Z" fill="#D9D7D2"/>
<path d="M248 119C248 120.105 247.105 121 246 121C244.895 121 244 120.105 244 119C244 117.895 244.895 117 246 117C247.105 117 248 117.895 248 119Z" fill="#D9D7D2"/>
<path d="M238 129C238 130.105 237.105 131 236 131C234.895 131 234 130.105 234 129C234 127.895 234.895 127 236 127C237.105 127 238 127.895 238 129Z" fill="#D9D7D2"/>
<path d="M248 129C248 130.105 247.105 131 246 131C244.895 131 244 130.105 244 129C244 127.895 244.895 127 246 127C247.105 127 248 127.895 248 129Z" fill="#D9D7D2"/>
<path d="M238 139C238 140.105 237.105 141 236 141C234.895 141 234 140.105 234 139C234 137.895 234.895 137 236 137C237.105 137 238 137.895 238 139Z" fill="#D9D7D2"/>
<path d="M248 139C248 140.105 247.105 141 246 141C244.895 141 244 140.105 244 139C244 137.895 244.895 137 246 137C247.105 137 248 137.895 248 139Z" fill="#D9D7D2"/>
<rect x="150" y="173" width="72" height="48" rx="2" stroke="#D9D7D2" stroke-width="2.5" stroke-linecap="round" stroke-dasharray="5 10"/>
<rect x="158" y="181" width="72" height="48" rx="2" fill="white" fill-opacity="0.1"/>
<mask id="path-28-inside-1_2203_168" fill="white">
<rect x="227" y="98" width="28" height="52" rx="2"/>
</mask>
<rect x="227" y="98" width="28" height="52" rx="2" stroke="#D9D7D2" stroke-width="5" mask="url(#path-28-inside-1_2203_168)"/>
</svg>
