<svg width="320" height="320" viewBox="0 0 320 320" fill="none" xmlns="http://www.w3.org/2000/svg">
<rect width="320" height="320" fill="#F8F9FA"/>
<path d="M92 133L196 195L92 256V133Z" fill="black" fill-opacity="0.1"/>
<path d="M84 132.041C84 128.937 87.382 127.016 90.0483 128.606L182.19 183.536C184.803 185.094 184.789 188.883 182.165 190.422L90.0237 244.467C87.3572 246.031 84 244.108 84 241.017V132.041Z" stroke="#495057" stroke-width="2.5" stroke-linecap="round" stroke-dasharray="4 10"/>
<path d="M138.456 130.99L238.75 189.817V71.1992L138.456 130.99Z" stroke="#495057" stroke-width="2.5"/>
<mask id="mask0_2203_175" style="mask-type:alpha" maskUnits="userSpaceOnUse" x="136" y="69" width="104" height="123">
<path d="M240 69L136 131L240 192V69Z" fill="#D9D9D9"/>
</mask>
<g mask="url(#mask0_2203_175)">
<path d="M159 76C159 77.1046 158.105 78 157 78C155.895 78 155 77.1046 155 76C155 74.8954 155.895 74 157 74C158.105 74 159 74.8954 159 76Z" fill="#495057"/>
<path d="M171 76C171 77.1046 170.105 78 169 78C167.895 78 167 77.1046 167 76C167 74.8954 167.895 74 169 74C170.105 74 171 74.8954 171 76Z" fill="#495057"/>
<path d="M183 76C183 77.1046 182.105 78 181 78C179.895 78 179 77.1046 179 76C179 74.8954 179.895 74 181 74C182.105 74 183 74.8954 183 76Z" fill="#495057"/>
<path d="M195 76C195 77.1046 194.105 78 193 78C191.895 78 191 77.1046 191 76C191 74.8954 191.895 74 193 74C194.105 74 195 74.8954 195 76Z" fill="#495057"/>
<path d="M207 76C207 77.1046 206.105 78 205 78C203.895 78 203 77.1046 203 76C203 74.8954 203.895 74 205 74C206.105 74 207 74.8954 207 76Z" fill="#495057"/>
<path d="M219 76C219 77.1046 218.105 78 217 78C215.895 78 215 77.1046 215 76C215 74.8954 215.895 74 217 74C218.105 74 219 74.8954 219 76Z" fill="#495057"/>
<path d="M231 76C231 77.1046 230.105 78 229 78C227.895 78 227 77.1046 227 76C227 74.8954 227.895 74 229 74C230.105 74 231 74.8954 231 76Z" fill="#495057"/>
<path d="M159 87C159 88.1046 158.105 89 157 89C155.895 89 155 88.1046 155 87C155 85.8954 155.895 85 157 85C158.105 85 159 85.8954 159 87Z" fill="#495057"/>
<path d="M171 87C171 88.1046 170.105 89 169 89C167.895 89 167 88.1046 167 87C167 85.8954 167.895 85 169 85C170.105 85 171 85.8954 171 87Z" fill="#495057"/>
<path d="M183 87C183 88.1046 182.105 89 181 89C179.895 89 179 88.1046 179 87C179 85.8954 179.895 85 181 85C182.105 85 183 85.8954 183 87Z" fill="#495057"/>
<path d="M195 87C195 88.1046 194.105 89 193 89C191.895 89 191 88.1046 191 87C191 85.8954 191.895 85 193 85C194.105 85 195 85.8954 195 87Z" fill="#495057"/>
<path d="M207 87C207 88.1046 206.105 89 205 89C203.895 89 203 88.1046 203 87C203 85.8954 203.895 85 205 85C206.105 85 207 85.8954 207 87Z" fill="#495057"/>
<path d="M219 87C219 88.1046 218.105 89 217 89C215.895 89 215 88.1046 215 87C215 85.8954 215.895 85 217 85C218.105 85 219 85.8954 219 87Z" fill="#495057"/>
<path d="M231 87C231 88.1046 230.105 89 229 89C227.895 89 227 88.1046 227 87C227 85.8954 227.895 85 229 85C230.105 85 231 85.8954 231 87Z" fill="#495057"/>
<path d="M159 98C159 99.1046 158.105 100 157 100C155.895 100 155 99.1046 155 98C155 96.8954 155.895 96 157 96C158.105 96 159 96.8954 159 98Z" fill="#495057"/>
<path d="M171 98C171 99.1046 170.105 100 169 100C167.895 100 167 99.1046 167 98C167 96.8954 167.895 96 169 96C170.105 96 171 96.8954 171 98Z" fill="#495057"/>
<path d="M183 98C183 99.1046 182.105 100 181 100C179.895 100 179 99.1046 179 98C179 96.8954 179.895 96 181 96C182.105 96 183 96.8954 183 98Z" fill="#495057"/>
<path d="M195 98C195 99.1046 194.105 100 193 100C191.895 100 191 99.1046 191 98C191 96.8954 191.895 96 193 96C194.105 96 195 96.8954 195 98Z" fill="#495057"/>
<path d="M207 98C207 99.1046 206.105 100 205 100C203.895 100 203 99.1046 203 98C203 96.8954 203.895 96 205 96C206.105 96 207 96.8954 207 98Z" fill="#495057"/>
<path d="M219 98C219 99.1046 218.105 100 217 100C215.895 100 215 99.1046 215 98C215 96.8954 215.895 96 217 96C218.105 96 219 96.8954 219 98Z" fill="#495057"/>
<path d="M231 98C231 99.1046 230.105 100 229 100C227.895 100 227 99.1046 227 98C227 96.8954 227.895 96 229 96C230.105 96 231 96.8954 231 98Z" fill="#495057"/>
<path d="M159 109C159 110.105 158.105 111 157 111C155.895 111 155 110.105 155 109C155 107.895 155.895 107 157 107C158.105 107 159 107.895 159 109Z" fill="#495057"/>
<path d="M171 109C171 110.105 170.105 111 169 111C167.895 111 167 110.105 167 109C167 107.895 167.895 107 169 107C170.105 107 171 107.895 171 109Z" fill="#495057"/>
<path d="M183 109C183 110.105 182.105 111 181 111C179.895 111 179 110.105 179 109C179 107.895 179.895 107 181 107C182.105 107 183 107.895 183 109Z" fill="#495057"/>
<path d="M195 109C195 110.105 194.105 111 193 111C191.895 111 191 110.105 191 109C191 107.895 191.895 107 193 107C194.105 107 195 107.895 195 109Z" fill="#495057"/>
<path d="M207 109C207 110.105 206.105 111 205 111C203.895 111 203 110.105 203 109C203 107.895 203.895 107 205 107C206.105 107 207 107.895 207 109Z" fill="#495057"/>
<path d="M219 109C219 110.105 218.105 111 217 111C215.895 111 215 110.105 215 109C215 107.895 215.895 107 217 107C218.105 107 219 107.895 219 109Z" fill="#495057"/>
<path d="M231 109C231 110.105 230.105 111 229 111C227.895 111 227 110.105 227 109C227 107.895 227.895 107 229 107C230.105 107 231 107.895 231 109Z" fill="#495057"/>
<path d="M159 120C159 121.105 158.105 122 157 122C155.895 122 155 121.105 155 120C155 118.895 155.895 118 157 118C158.105 118 159 118.895 159 120Z" fill="#495057"/>
<path d="M171 120C171 121.105 170.105 122 169 122C167.895 122 167 121.105 167 120C167 118.895 167.895 118 169 118C170.105 118 171 118.895 171 120Z" fill="#495057"/>
<path d="M183 120C183 121.105 182.105 122 181 122C179.895 122 179 121.105 179 120C179 118.895 179.895 118 181 118C182.105 118 183 118.895 183 120Z" fill="#495057"/>
<path d="M195 120C195 121.105 194.105 122 193 122C191.895 122 191 121.105 191 120C191 118.895 191.895 118 193 118C194.105 118 195 118.895 195 120Z" fill="#495057"/>
<path d="M207 120C207 121.105 206.105 122 205 122C203.895 122 203 121.105 203 120C203 118.895 203.895 118 205 118C206.105 118 207 118.895 207 120Z" fill="#495057"/>
<path d="M219 120C219 121.105 218.105 122 217 122C215.895 122 215 121.105 215 120C215 118.895 215.895 118 217 118C218.105 118 219 118.895 219 120Z" fill="#495057"/>
<path d="M231 120C231 121.105 230.105 122 229 122C227.895 122 227 121.105 227 120C227 118.895 227.895 118 229 118C230.105 118 231 118.895 231 120Z" fill="#495057"/>
<path d="M159 131C159 132.105 158.105 133 157 133C155.895 133 155 132.105 155 131C155 129.895 155.895 129 157 129C158.105 129 159 129.895 159 131Z" fill="#495057"/>
<path d="M171 131C171 132.105 170.105 133 169 133C167.895 133 167 132.105 167 131C167 129.895 167.895 129 169 129C170.105 129 171 129.895 171 131Z" fill="#495057"/>
<path d="M183 131C183 132.105 182.105 133 181 133C179.895 133 179 132.105 179 131C179 129.895 179.895 129 181 129C182.105 129 183 129.895 183 131Z" fill="#495057"/>
<path d="M195 131C195 132.105 194.105 133 193 133C191.895 133 191 132.105 191 131C191 129.895 191.895 129 193 129C194.105 129 195 129.895 195 131Z" fill="#495057"/>
<path d="M207 131C207 132.105 206.105 133 205 133C203.895 133 203 132.105 203 131C203 129.895 203.895 129 205 129C206.105 129 207 129.895 207 131Z" fill="#495057"/>
<path d="M219 131C219 132.105 218.105 133 217 133C215.895 133 215 132.105 215 131C215 129.895 215.895 129 217 129C218.105 129 219 129.895 219 131Z" fill="#495057"/>
<path d="M231 131C231 132.105 230.105 133 229 133C227.895 133 227 132.105 227 131C227 129.895 227.895 129 229 129C230.105 129 231 129.895 231 131Z" fill="#495057"/>
<path d="M159 142C159 143.105 158.105 144 157 144C155.895 144 155 143.105 155 142C155 140.895 155.895 140 157 140C158.105 140 159 140.895 159 142Z" fill="#495057"/>
<path d="M171 142C171 143.105 170.105 144 169 144C167.895 144 167 143.105 167 142C167 140.895 167.895 140 169 140C170.105 140 171 140.895 171 142Z" fill="#495057"/>
<path d="M183 142C183 143.105 182.105 144 181 144C179.895 144 179 143.105 179 142C179 140.895 179.895 140 181 140C182.105 140 183 140.895 183 142Z" fill="#495057"/>
<path d="M195 142C195 143.105 194.105 144 193 144C191.895 144 191 143.105 191 142C191 140.895 191.895 140 193 140C194.105 140 195 140.895 195 142Z" fill="#495057"/>
<path d="M207 142C207 143.105 206.105 144 205 144C203.895 144 203 143.105 203 142C203 140.895 203.895 140 205 140C206.105 140 207 140.895 207 142Z" fill="#495057"/>
<path d="M219 142C219 143.105 218.105 144 217 144C215.895 144 215 143.105 215 142C215 140.895 215.895 140 217 140C218.105 140 219 140.895 219 142Z" fill="#495057"/>
<path d="M231 142C231 143.105 230.105 144 229 144C227.895 144 227 143.105 227 142C227 140.895 227.895 140 229 140C230.105 140 231 140.895 231 142Z" fill="#495057"/>
<path d="M159 153C159 154.105 158.105 155 157 155C155.895 155 155 154.105 155 153C155 151.895 155.895 151 157 151C158.105 151 159 151.895 159 153Z" fill="#495057"/>
<path d="M171 153C171 154.105 170.105 155 169 155C167.895 155 167 154.105 167 153C167 151.895 167.895 151 169 151C170.105 151 171 151.895 171 153Z" fill="#495057"/>
<path d="M183 153C183 154.105 182.105 155 181 155C179.895 155 179 154.105 179 153C179 151.895 179.895 151 181 151C182.105 151 183 151.895 183 153Z" fill="#495057"/>
<path d="M195 153C195 154.105 194.105 155 193 155C191.895 155 191 154.105 191 153C191 151.895 191.895 151 193 151C194.105 151 195 151.895 195 153Z" fill="#495057"/>
<path d="M207 153C207 154.105 206.105 155 205 155C203.895 155 203 154.105 203 153C203 151.895 203.895 151 205 151C206.105 151 207 151.895 207 153Z" fill="#495057"/>
<path d="M219 153C219 154.105 218.105 155 217 155C215.895 155 215 154.105 215 153C215 151.895 215.895 151 217 151C218.105 151 219 151.895 219 153Z" fill="#495057"/>
<path d="M231 153C231 154.105 230.105 155 229 155C227.895 155 227 154.105 227 153C227 151.895 227.895 151 229 151C230.105 151 231 151.895 231 153Z" fill="#495057"/>
<path d="M159 164C159 165.105 158.105 166 157 166C155.895 166 155 165.105 155 164C155 162.895 155.895 162 157 162C158.105 162 159 162.895 159 164Z" fill="#495057"/>
<path d="M171 164C171 165.105 170.105 166 169 166C167.895 166 167 165.105 167 164C167 162.895 167.895 162 169 162C170.105 162 171 162.895 171 164Z" fill="#495057"/>
<path d="M183 164C183 165.105 182.105 166 181 166C179.895 166 179 165.105 179 164C179 162.895 179.895 162 181 162C182.105 162 183 162.895 183 164Z" fill="#495057"/>
<path d="M195 164C195 165.105 194.105 166 193 166C191.895 166 191 165.105 191 164C191 162.895 191.895 162 193 162C194.105 162 195 162.895 195 164Z" fill="#495057"/>
<path d="M207 164C207 165.105 206.105 166 205 166C203.895 166 203 165.105 203 164C203 162.895 203.895 162 205 162C206.105 162 207 162.895 207 164Z" fill="#495057"/>
<path d="M219 164C219 165.105 218.105 166 217 166C215.895 166 215 165.105 215 164C215 162.895 215.895 162 217 162C218.105 162 219 162.895 219 164Z" fill="#495057"/>
<path d="M231 164C231 165.105 230.105 166 229 166C227.895 166 227 165.105 227 164C227 162.895 227.895 162 229 162C230.105 162 231 162.895 231 164Z" fill="#495057"/>
<path d="M159 175C159 176.105 158.105 177 157 177C155.895 177 155 176.105 155 175C155 173.895 155.895 173 157 173C158.105 173 159 173.895 159 175Z" fill="#495057"/>
<path d="M171 175C171 176.105 170.105 177 169 177C167.895 177 167 176.105 167 175C167 173.895 167.895 173 169 173C170.105 173 171 173.895 171 175Z" fill="#495057"/>
<path d="M183 175C183 176.105 182.105 177 181 177C179.895 177 179 176.105 179 175C179 173.895 179.895 173 181 173C182.105 173 183 173.895 183 175Z" fill="#495057"/>
<path d="M195 175C195 176.105 194.105 177 193 177C191.895 177 191 176.105 191 175C191 173.895 191.895 173 193 173C194.105 173 195 173.895 195 175Z" fill="#495057"/>
<path d="M207 175C207 176.105 206.105 177 205 177C203.895 177 203 176.105 203 175C203 173.895 203.895 173 205 173C206.105 173 207 173.895 207 175Z" fill="#495057"/>
<path d="M219 175C219 176.105 218.105 177 217 177C215.895 177 215 176.105 215 175C215 173.895 215.895 173 217 173C218.105 173 219 173.895 219 175Z" fill="#495057"/>
<path d="M231 175C231 176.105 230.105 177 229 177C227.895 177 227 176.105 227 175C227 173.895 227.895 173 229 173C230.105 173 231 173.895 231 175Z" fill="#495057"/>
</g>
</svg>
