<svg class="hero-icon-svg" data-icon="design" viewBox="0 0 320 320" fill="none" xmlns="http://www.w3.org/2000/svg">
<rect x="79.25" y="80.25" width="69.5" height="69.5" stroke="currentColor" stroke-width="2.5"/>
<rect x="171.25" y="171.25" width="69.5" height="69.5" stroke="currentColor" stroke-width="2.5"/>
<circle cx="210" cy="119" r="36" fill="currentColor" fill-opacity="0.12"/>
<circle cx="118" cy="210" r="36" fill="currentColor" fill-opacity="0.12"/>
<circle cx="206" cy="115" r="36" stroke="currentColor" stroke-width="2.5" stroke-linecap="round" stroke-linejoin="round" stroke-dasharray="4 10"/>
<circle cx="114" cy="206" r="36" stroke="currentColor" stroke-width="2.5" stroke-linecap="round" stroke-linejoin="round" stroke-dasharray="4 10"/>
<path d="M92 91C92 92.1046 91.1046 93 90 93C88.8954 93 88 92.1046 88 91C88 89.8954 88.8954 89 90 89C91.1046 89 92 89.8954 92 91Z" fill="currentColor"/>
<path d="M104 91C104 92.1046 103.105 93 102 93C100.895 93 100 92.1046 100 91C100 89.8954 100.895 89 102 89C103.105 89 104 89.8954 104 91Z" fill="currentColor"/>
<path d="M116 91C116 92.1046 115.105 93 114 93C112.895 93 112 92.1046 112 91C112 89.8954 112.895 89 114 89C115.105 89 116 89.8954 116 91Z" fill="currentColor"/>
<path d="M128 91C128 92.1046 127.105 93 126 93C124.895 93 124 92.1046 124 91C124 89.8954 124.895 89 126 89C127.105 89 128 89.8954 128 91Z" fill="currentColor"/>
<path d="M140 91C140 92.1046 139.105 93 138 93C136.895 93 136 92.1046 136 91C136 89.8954 136.895 89 138 89C139.105 89 140 89.8954 140 91Z" fill="currentColor"/>
<path d="M92 103C92 104.105 91.1046 105 90 105C88.8954 105 88 104.105 88 103C88 101.895 88.8954 101 90 101C91.1046 101 92 101.895 92 103Z" fill="currentColor"/>
<path d="M104 103C104 104.105 103.105 105 102 105C100.895 105 100 104.105 100 103C100 101.895 100.895 101 102 101C103.105 101 104 101.895 104 103Z" fill="currentColor"/>
<path d="M116 103C116 104.105 115.105 105 114 105C112.895 105 112 104.105 112 103C112 101.895 112.895 101 114 101C115.105 101 116 101.895 116 103Z" fill="currentColor"/>
<path d="M128 103C128 104.105 127.105 105 126 105C124.895 105 124 104.105 124 103C124 101.895 124.895 101 126 101C127.105 101 128 101.895 128 103Z" fill="currentColor"/>
<path d="M140 103C140 104.105 139.105 105 138 105C136.895 105 136 104.105 136 103C136 101.895 136.895 101 138 101C139.105 101 140 101.895 140 103Z" fill="currentColor"/>
<path d="M92 115C92 116.105 91.1046 117 90 117C88.8954 117 88 116.105 88 115C88 113.895 88.8954 113 90 113C91.1046 113 92 113.895 92 115Z" fill="currentColor"/>
<path d="M104 115C104 116.105 103.105 117 102 117C100.895 117 100 116.105 100 115C100 113.895 100.895 113 102 113C103.105 113 104 113.895 104 115Z" fill="currentColor"/>
<path d="M116 115C116 116.105 115.105 117 114 117C112.895 117 112 116.105 112 115C112 113.895 112.895 113 114 113C115.105 113 116 113.895 116 115Z" fill="currentColor"/>
<path d="M128 115C128 116.105 127.105 117 126 117C124.895 117 124 116.105 124 115C124 113.895 124.895 113 126 113C127.105 113 128 113.895 128 115Z" fill="currentColor"/>
<path d="M140 115C140 116.105 139.105 117 138 117C136.895 117 136 116.105 136 115C136 113.895 136.895 113 138 113C139.105 113 140 113.895 140 115Z" fill="currentColor"/>
<path d="M92 127C92 128.105 91.1046 129 90 129C88.8954 129 88 128.105 88 127C88 125.895 88.8954 125 90 125C91.1046 125 92 125.895 92 127Z" fill="currentColor"/>
<path d="M104 127C104 128.105 103.105 129 102 129C100.895 129 100 128.105 100 127C100 125.895 100.895 125 102 125C103.105 125 104 125.895 104 127Z" fill="currentColor"/>
<path d="M116 127C116 128.105 115.105 129 114 129C112.895 129 112 128.105 112 127C112 125.895 112.895 125 114 125C115.105 125 116 125.895 116 127Z" fill="currentColor"/>
<path d="M128 127C128 128.105 127.105 129 126 129C124.895 129 124 128.105 124 127C124 125.895 124.895 125 126 125C127.105 125 128 125.895 128 127Z" fill="currentColor"/>
<path d="M140 127C140 128.105 139.105 129 138 129C136.895 129 136 128.105 136 127C136 125.895 136.895 125 138 125C139.105 125 140 125.895 140 127Z" fill="currentColor"/>
<path d="M92 139C92 140.105 91.1046 141 90 141C88.8954 141 88 140.105 88 139C88 137.895 88.8954 137 90 137C91.1046 137 92 137.895 92 139Z" fill="currentColor"/>
<path d="M104 139C104 140.105 103.105 141 102 141C100.895 141 100 140.105 100 139C100 137.895 100.895 137 102 137C103.105 137 104 137.895 104 139Z" fill="currentColor"/>
<path d="M116 139C116 140.105 115.105 141 114 141C112.895 141 112 140.105 112 139C112 137.895 112.895 137 114 137C115.105 137 116 137.895 116 139Z" fill="currentColor"/>
<path d="M128 139C128 140.105 127.105 141 126 141C124.895 141 124 140.105 124 139C124 137.895 124.895 137 126 137C127.105 137 128 137.895 128 139Z" fill="currentColor"/>
<path d="M140 139C140 140.105 139.105 141 138 141C136.895 141 136 140.105 136 139C136 137.895 136.895 137 138 137C139.105 137 140 137.895 140 139Z" fill="currentColor"/>
<path d="M184 182C184 183.105 183.105 184 182 184C180.895 184 180 183.105 180 182C180 180.895 180.895 180 182 180C183.105 180 184 180.895 184 182Z" fill="currentColor"/>
<path d="M196 182C196 183.105 195.105 184 194 184C192.895 184 192 183.105 192 182C192 180.895 192.895 180 194 180C195.105 180 196 180.895 196 182Z" fill="currentColor"/>
<path d="M208 182C208 183.105 207.105 184 206 184C204.895 184 204 183.105 204 182C204 180.895 204.895 180 206 180C207.105 180 208 180.895 208 182Z" fill="currentColor"/>
<path d="M220 182C220 183.105 219.105 184 218 184C216.895 184 216 183.105 216 182C216 180.895 216.895 180 218 180C219.105 180 220 180.895 220 182Z" fill="currentColor"/>
<path d="M232 182C232 183.105 231.105 184 230 184C228.895 184 228 183.105 228 182C228 180.895 228.895 180 230 180C231.105 180 232 180.895 232 182Z" fill="currentColor"/>
<path d="M184 194C184 195.105 183.105 196 182 196C180.895 196 180 195.105 180 194C180 192.895 180.895 192 182 192C183.105 192 184 192.895 184 194Z" fill="currentColor"/>
<path d="M196 194C196 195.105 195.105 196 194 196C192.895 196 192 195.105 192 194C192 192.895 192.895 192 194 192C195.105 192 196 192.895 196 194Z" fill="currentColor"/>
<path d="M208 194C208 195.105 207.105 196 206 196C204.895 196 204 195.105 204 194C204 192.895 204.895 192 206 192C207.105 192 208 192.895 208 194Z" fill="currentColor"/>
<path d="M220 194C220 195.105 219.105 196 218 196C216.895 196 216 195.105 216 194C216 192.895 216.895 192 218 192C219.105 192 220 192.895 220 194Z" fill="currentColor"/>
<path d="M232 194C232 195.105 231.105 196 230 196C228.895 196 228 195.105 228 194C228 192.895 228.895 192 230 192C231.105 192 232 192.895 232 194Z" fill="currentColor"/>
<path d="M184 206C184 207.105 183.105 208 182 208C180.895 208 180 207.105 180 206C180 204.895 180.895 204 182 204C183.105 204 184 204.895 184 206Z" fill="currentColor"/>
<path d="M196 206C196 207.105 195.105 208 194 208C192.895 208 192 207.105 192 206C192 204.895 192.895 204 194 204C195.105 204 196 204.895 196 206Z" fill="currentColor"/>
<path d="M208 206C208 207.105 207.105 208 206 208C204.895 208 204 207.105 204 206C204 204.895 204.895 204 206 204C207.105 204 208 204.895 208 206Z" fill="currentColor"/>
<path d="M220 206C220 207.105 219.105 208 218 208C216.895 208 216 207.105 216 206C216 204.895 216.895 204 218 204C219.105 204 220 204.895 220 206Z" fill="currentColor"/>
<path d="M232 206C232 207.105 231.105 208 230 208C228.895 208 228 207.105 228 206C228 204.895 228.895 204 230 204C231.105 204 232 204.895 232 206Z" fill="currentColor"/>
<path d="M184 218C184 219.105 183.105 220 182 220C180.895 220 180 219.105 180 218C180 216.895 180.895 216 182 216C183.105 216 184 216.895 184 218Z" fill="currentColor"/>
<path d="M196 218C196 219.105 195.105 220 194 220C192.895 220 192 219.105 192 218C192 216.895 192.895 216 194 216C195.105 216 196 216.895 196 218Z" fill="currentColor"/>
<path d="M208 218C208 219.105 207.105 220 206 220C204.895 220 204 219.105 204 218C204 216.895 204.895 216 206 216C207.105 216 208 216.895 208 218Z" fill="currentColor"/>
<path d="M220 218C220 219.105 219.105 220 218 220C216.895 220 216 219.105 216 218C216 216.895 216.895 216 218 216C219.105 216 220 216.895 220 218Z" fill="currentColor"/>
<path d="M232 218C232 219.105 231.105 220 230 220C228.895 220 228 219.105 228 218C228 216.895 228.895 216 230 216C231.105 216 232 216.895 232 218Z" fill="currentColor"/>
<path d="M184 230C184 231.105 183.105 232 182 232C180.895 232 180 231.105 180 230C180 228.895 180.895 228 182 228C183.105 228 184 228.895 184 230Z" fill="currentColor"/>
<path d="M196 230C196 231.105 195.105 232 194 232C192.895 232 192 231.105 192 230C192 228.895 192.895 228 194 228C195.105 228 196 228.895 196 230Z" fill="currentColor"/>
<path d="M208 230C208 231.105 207.105 232 206 232C204.895 232 204 231.105 204 230C204 228.895 204.895 228 206 228C207.105 228 208 228.895 208 230Z" fill="currentColor"/>
<path d="M220 230C220 231.105 219.105 232 218 232C216.895 232 216 231.105 216 230C216 228.895 216.895 228 218 228C219.105 228 220 228.895 220 230Z" fill="currentColor"/>
<path d="M232 230C232 231.105 231.105 232 230 232C228.895 232 228 231.105 228 230C228 228.895 228.895 228 230 228C231.105 228 232 228.895 232 230Z" fill="currentColor"/>
</svg>