<svg width="48" height="48" viewBox="0 0 48 48" fill="none" xmlns="http://www.w3.org/2000/svg">
<path d="M35.1289 36.9176H13.3203V15.1198L35.1289 36.9176ZM15.1201 35.1178H30.7822L15.1201 19.4635V35.1178ZM16.1045 12.3854C20.3126 8.17724 27.1815 8.19872 31.3896 12.4069C35.5977 16.6149 35.5976 23.4614 31.3896 27.6696L29.7539 29.3053C14.1424 13.6938 30.0813 29.6317 14.4697 14.0201L16.1045 12.3854Z" fill="#343A40"/>
<mask id="mask0_2161_111" style="mask-type:alpha" maskUnits="userSpaceOnUse" x="14" y="17" width="19" height="19">
<path d="M14.1599 36V17.52L32.1599 36H14.1599Z" fill="#C4C4C4"/>
</mask>
<g mask="url(#mask0_2161_111)">
<path d="M26.0399 32.52C26.0399 33.1827 25.5026 33.72 24.8399 33.72C24.1772 33.72 23.6399 33.1827 23.6399 32.52C23.6399 31.8573 24.1772 31.32 24.8399 31.32C25.5026 31.32 26.0399 31.8573 26.0399 32.52Z" fill="#343A40"/>
<path d="M22.44 28.92C22.44 29.5828 21.9028 30.12 21.24 30.12C20.5773 30.12 20.04 29.5828 20.04 28.92C20.04 28.2573 20.5773 27.72 21.24 27.72C21.9028 27.72 22.44 28.2573 22.44 28.92Z" fill="#343A40"/>
<path d="M18.8399 25.32C18.8399 25.9827 18.3027 26.52 17.6399 26.52C16.9772 26.52 16.4399 25.9827 16.4399 25.32C16.4399 24.6573 16.9772 24.12 17.6399 24.12C18.3027 24.12 18.8399 24.6573 18.8399 25.32Z" fill="#343A40"/>
<path d="M22.44 32.52C22.44 33.1827 21.9028 33.72 21.24 33.72C20.5773 33.72 20.04 33.1827 20.04 32.52C20.04 31.8573 20.5773 31.32 21.24 31.32C21.9028 31.32 22.44 31.8573 22.44 32.52Z" fill="#343A40"/>
<path d="M18.8399 28.92C18.8399 29.5828 18.3027 30.12 17.6399 30.12C16.9772 30.12 16.4399 29.5828 16.4399 28.92C16.4399 28.2573 16.9772 27.72 17.6399 27.72C18.3027 27.72 18.8399 28.2573 18.8399 28.92Z" fill="#343A40"/>
<path d="M18.8399 32.52C18.8399 33.1827 18.3027 33.72 17.6399 33.72C16.9772 33.72 16.4399 33.1827 16.4399 32.52C16.4399 31.8573 16.9772 31.32 17.6399 31.32C18.3027 31.32 18.8399 31.8573 18.8399 32.52Z" fill="#343A40"/>
</g>
</svg>
